<?xml version="1.0" encoding="UTF-8" standalone="no"?>
<svg
   fill="#000000"
   viewBox="0 0 520 520"
   width="520"
   height="520"
   version="1.1"
   id="svg4"
   sodipodi:docname="google-scholar.svg"
   inkscape:version="1.1.1 (3bf5ae0d25, 2021-09-20, custom)"
   xmlns:inkscape="http://www.inkscape.org/namespaces/inkscape"
   xmlns:sodipodi="http://sodipodi.sourceforge.net/DTD/sodipodi-0.dtd"
   xmlns="http://www.w3.org/2000/svg"
   xmlns:svg="http://www.w3.org/2000/svg">
  <defs
     id="defs8" />
  <sodipodi:namedview
     id="namedview6"
     pagecolor="#ffffff"
     bordercolor="#666666"
     borderopacity="1.0"
     inkscape:pageshadow="2"
     inkscape:pageopacity="0.0"
     inkscape:pagecheckerboard="0"
     showgrid="false"
     inkscape:zoom="0.928342"
     inkscape:cx="-17.235028"
     inkscape:cy="320.46379"
     inkscape:window-width="1920"
     inkscape:window-height="1020"
     inkscape:window-x="0"
     inkscape:window-y="32"
     inkscape:window-maximized="1"
     inkscape:current-layer="svg4"
     inkscape:snap-bbox="true"
     inkscape:snap-bbox-midpoints="true" />
  <path
     d="M 260,12.000001 C 123.03636,12.000001 12.000003,123.03636 12.000003,260 12.000003,396.96364 123.03636,508 260,508 396.96364,508 508,396.96364 508,260 508,123.03636 396.96364,12.000001 260,12.000001 Z m -45.09091,90.181819 h 191.63636 l -11.49289,9.92968 c 0,0.45091 0.22017,0.89214 0.22017,1.34305 v 59.51207 c 6.76363,3.83273 11.27272,11.0552 11.27272,19.39702 V 260 C 406.54545,272.4 396.4,282.54545 384,282.54545 371.6,282.54545 361.45455,272.4 361.45455,260 v -67.63636 c 0,-8.34182 4.50909,-15.56429 11.27272,-19.39702 v -41.81038 l -40.46733,34.72089 c 3.94545,7.89091 6.64915,17.47096 6.64915,29.1946 0,30.66182 -17.12662,45.87472 -34.14844,59.402 -5.29818,5.4109 -11.51491,11.27888 -11.51491,20.40979 0,9.01819 6.21321,14.09443 10.7223,17.70171 l 14.53125,11.60298 c 17.92363,15.33091 34.17045,29.42887 34.17045,57.94887 0,38.8909 -37.08991,78.22656 -106.98082,78.22656 -58.95636,0 -87.36363,-28.52 -87.36363,-59.18182 0,-14.88 7.31934,-35.96529 31.33025,-50.50711 25.13819,-15.66909 59.30159,-17.80474 77.67614,-19.04474 -5.74909,-7.44 -12.28551,-15.21818 -12.28551,-28.18182 0,-6.87636 2.13212,-11.04374 4.16122,-16.11647 -4.50909,0.45091 -9.01995,0.9027 -13.07813,0.9027 -42.83637,0 -67.30082,-32.47074 -67.52628,-64.59802 h -76.42116 z m 36.85653,36.52627 c -10.48363,0 -21.8638,5.30612 -28.40198,13.76067 -6.87637,8.56727 -9.02699,19.71845 -9.02699,30.42754 0,27.73091 16.02665,73.71308 50.85938,73.71308 10.25818,0 21.18127,-4.95208 27.71945,-11.60299 9.24364,-9.58181 10.14986,-22.77003 10.14986,-30.0973 0,-29.87273 -17.48154,-76.201 -51.29972,-76.201 z m 19.94744,184.52486 c -3.60727,0 -25.58115,0.78734 -42.60297,6.64916 -9.01818,3.38181 -34.94106,13.20318 -34.94106,42.625 0,29.42181 27.95461,50.5071 71.46733,50.5071 39.11637,0 59.75426,-19.17157 59.75426,-44.76066 0,-21.08 -13.30094,-32.23823 -44.18821,-54.55823 -3.26909,-0.45091 -5.31843,-0.46237 -9.48935,-0.46237 z"
     id="path2"
     style="fill:#4e52a3;fill-opacity:1;stroke-width:11.2727" />
  <path
     id="path2406"
     style="fill:#ffffff;fill-opacity:1;stroke-width:106.514"
     d="M 214.90909,102.18182 102.18182,203.63636 h 76.42116 c 0.22546,32.12728 24.68991,64.59802 67.52628,64.59802 4.05818,0 8.56904,-0.45179 13.07813,-0.9027 -2.02911,5.07273 -4.16122,9.24011 -4.16122,16.11647 0,12.96364 6.53642,20.74182 12.28551,28.18182 -18.37455,1.24 -52.53795,3.37565 -77.67614,19.04474 -24.01091,14.54182 -31.33025,35.62711 -31.33025,50.50711 0,30.66182 28.40727,59.18182 87.36363,59.18182 69.89091,0 106.98082,-39.33566 106.98082,-78.22656 0,-28.52 -16.24682,-42.61796 -34.17045,-57.94887 l -14.53125,-11.60298 c -4.50909,-3.60728 -10.7223,-8.68352 -10.7223,-17.70171 0,-9.13091 6.21673,-14.99889 11.51491,-20.40979 17.02182,-13.52728 34.14844,-28.74018 34.14844,-59.402 0,-11.72364 -2.7037,-21.30369 -6.64915,-29.1946 l 40.46733,-34.72089 v 41.81038 c -6.76363,3.83273 -11.27272,11.0552 -11.27272,19.39702 V 260 c 0,12.4 10.14545,22.54545 22.54545,22.54545 12.4,0 22.54545,-10.14545 22.54545,-22.54545 v -67.63636 c 0,-8.34182 -4.50909,-15.56429 -11.27272,-19.39702 v -59.51207 c 0,-0.45091 -0.22017,-0.89214 -0.22017,-1.34305 l 11.22868,-9.70951 a 218.83552,227.4506 0 0 0 -0.19815,-0.22017 z m 36.85653,36.52627 c 33.81818,0 51.29972,46.32827 51.29972,76.201 0,7.32727 -0.90622,20.51549 -10.14986,30.0973 -6.53818,6.65091 -17.46127,11.60299 -27.71945,11.60299 -34.83273,0 -50.85938,-45.98217 -50.85938,-73.71308 0,-10.70909 2.15062,-21.86028 9.02699,-30.42754 6.53818,-8.45456 17.91835,-13.76067 28.40198,-13.76067 z m 19.94744,184.52486 c 4.17092,0 6.22026,0.0115 9.48935,0.46237 30.88727,22.32 44.18821,33.47823 44.18821,54.55823 0,25.58909 -20.63789,44.76066 -59.75426,44.76066 -43.51272,0 -71.46733,-21.08529 -71.46733,-50.5071 0,-29.42182 25.92288,-39.24319 34.94106,-42.625 17.02182,-5.86182 38.9957,-6.64916 42.60297,-6.64916 z" />
</svg>
