<?xml version="1.0" encoding="UTF-8" standalone="no"?>
<svg
   viewBox="0 0 448 448"
   version="1.1"
   id="svg1"
   sodipodi:docname="linkedin.svg"
   inkscape:version="1.3.2 (091e20e, 2023-11-25, custom)"
   width="448"
   height="448"
   xmlns:inkscape="http://www.inkscape.org/namespaces/inkscape"
   xmlns:sodipodi="http://sodipodi.sourceforge.net/DTD/sodipodi-0.dtd"
   xmlns="http://www.w3.org/2000/svg"
   xmlns:svg="http://www.w3.org/2000/svg">
  <defs
     id="defs1" />
  <sodipodi:namedview
     id="namedview1"
     pagecolor="#ffffff"
     bordercolor="#000000"
     borderopacity="0.25"
     inkscape:showpageshadow="2"
     inkscape:pageopacity="0.0"
     inkscape:pagecheckerboard="0"
     inkscape:deskcolor="#d1d1d1"
     inkscape:zoom="2.3769531"
     inkscape:cx="224.0263"
     inkscape:cy="224.0263"
     inkscape:window-width="2400"
     inkscape:window-height="1494"
     inkscape:window-x="-11"
     inkscape:window-y="-11"
     inkscape:window-maximized="1"
     inkscape:current-layer="svg1" />
  <!--!Font Awesome Free 6.5.2 by @fontawesome - https://fontawesome.com License - https://fontawesome.com/license/free Copyright 2024 Fonticons, Inc.-->
  <path
     d="M 416,0 H 31.9 C 14.3,0 0,14.5 0,32.3 V 415.7 C 0,433.5 14.3,448 31.9,448 H 416 c 17.6,0 32,-14.5 32,-32.3 V 32.3 C 448,14.5 433.6,0 416,0 Z M 135.4,384 H 69 V 170.2 h 66.5 V 384 Z M 102.2,141 C 80.9,141 63.7,123.7 63.7,102.5 63.7,81.3 80.9,64 102.2,64 c 21.2,0 38.5,17.3 38.5,38.5 0,21.3 -17.2,38.5 -38.5,38.5 z M 384.3,384 H 317.9 V 280 c 0,-24.8 -0.5,-56.7 -34.5,-56.7 -34.6,0 -39.9,27 -39.9,54.9 V 384 H 177.1 V 170.2 h 63.7 v 29.2 h 0.9 c 8.9,-16.8 30.6,-34.5 62.9,-34.5 67.2,0 79.7,44.3 79.7,101.9 z"
     id="path1"
     style="fill:#4e52a3;fill-opacity:1" />
</svg>
