<?xml version="1.0" encoding="UTF-8" standalone="no"?>
<svg
   viewBox="0 0 448 448"
   version="1.1"
   id="svg892"
   sodipodi:docname="researchgate.svg"
   inkscape:version="1.1.1 (3bf5ae0d25, 2021-09-20, custom)"
   width="448"
   height="448"
   xmlns:inkscape="http://www.inkscape.org/namespaces/inkscape"
   xmlns:sodipodi="http://sodipodi.sourceforge.net/DTD/sodipodi-0.dtd"
   xmlns="http://www.w3.org/2000/svg"
   xmlns:svg="http://www.w3.org/2000/svg">
  <defs
     id="defs896" />
  <sodipodi:namedview
     id="namedview894"
     pagecolor="#ffffff"
     bordercolor="#666666"
     borderopacity="1.0"
     inkscape:pageshadow="2"
     inkscape:pageopacity="0.0"
     inkscape:pagecheckerboard="0"
     showgrid="false"
     inkscape:zoom="1.4199219"
     inkscape:cx="21.127923"
     inkscape:cy="224.30811"
     inkscape:window-width="1920"
     inkscape:window-height="1020"
     inkscape:window-x="0"
     inkscape:window-y="32"
     inkscape:window-maximized="1"
     inkscape:current-layer="svg892" />
  <!--! Font Awesome Pro 6.0.0 by @fontawesome - https://fontawesome.com License - https://fontawesome.com/license (Commercial License) Copyright 2022 Fonticons, Inc. -->
  <path
     d="M 0,0 V 448 H 448 V 0 Z m 262.2,334.4 c -6.6,3 -33.2,6 -50,-14.2 -9.2,-10.6 -25.3,-33.3 -42.2,-63.6 -8.9,0 -14.7,0 -21.4,-0.6 v 46.4 c 0,23.5 6,21.2 25.8,23.9 v 8.1 c -6.9,-0.3 -23.1,-0.8 -35.6,-0.8 -13.1,0 -26.1,0.6 -33.6,0.8 v -8.1 c 15.5,-2.9 22,-1.3 22,-23.9 V 193 c 0,-22.6 -6.4,-21 -22,-23.9 V 161 c 25.8,1 53.1,-0.6 70.9,-0.6 31.7,0 55.9,14.4 55.9,45.6 0,21.1 -16.7,42.2 -39.2,47.5 13.6,24.2 30,45.6 42.2,58.9 7.2,7.8 17.2,14.7 27.2,14.7 z m 22.9,-135 c -23.3,0 -32.2,-15.7 -32.2,-32.2 V 135 c 0,-12.2 8.8,-30.4 34,-30.4 25.2,0 30.4,17.9 30.4,17.9 l -10.7,7.2 c 0,0 -5.5,-12.5 -19.7,-12.5 -7.9,0 -19.7,7.3 -19.7,19.7 v 26.8 c 0,13.4 6.6,23.3 17.9,23.3 14.1,0 21.5,-10.9 21.5,-26.8 h -17.9 v -10.7 h 30.4 c 0,20.5 4.7,49.9 -34,49.9 z m -116.5,44.7 c -9.4,0 -13.6,-0.3 -20,-0.8 v -69.7 c 6.4,-0.6 15,-0.6 22.5,-0.6 23.3,0 37.2,12.2 37.2,34.5 0,21.9 -15,36.6 -39.7,36.6 z"
     id="path890"
     style="fill:#4e52a3;fill-opacity:1" />
  <path
     id="rect1873"
     style="fill:#ffffff;fill-opacity:1;stroke-width:9.44882"
     d="m 286.90039,104.59961 c -25.2,0 -34,18.20039 -34,30.40039 v 32.19922 c 0,16.5 8.89922,32.20117 32.19922,32.20117 38.7,0 34,-29.40039 34,-49.90039 h -30.40039 v 10.69922 h 17.90039 c 0,15.9 -7.4,26.80078 -21.5,26.80078 -11.3,0 -17.90039,-9.90078 -17.90039,-23.30078 v -26.79883 c 0,-12.4 11.80117,-19.70117 19.70117,-19.70117 14.2,0 19.69922,12.5 19.69922,12.5 L 317.30078,122.5 c 0,0 -5.20039,-17.90039 -30.40039,-17.90039 z m -110.80078,55.80078 c -17.8,0 -45.10039,1.59961 -70.90039,0.59961 v 8.09961 c 15.6,2.9 22,1.30039 22,23.90039 v 109.40039 c 0,22.6 -6.5,21.00039 -22,23.90039 v 8.09961 c 7.5,-0.2 20.50156,-0.80078 33.60156,-0.80078 12.5,0 28.69961,0.50078 35.59961,0.80078 v -8.09961 c -19.8,-2.7 -25.80078,-0.40039 -25.80078,-23.90039 V 256 c 6.7,0.6 12.50039,0.59961 21.40039,0.59961 16.9,30.3 32.99922,52.99961 42.19922,63.59961 16.8,20.2 43.4,17.20117 50,14.20117 v -7.30078 c -10,0 -19.99922,-6.89922 -27.19922,-14.69922 C 222.8,299.10039 206.40078,277.7 192.80078,253.5 215.30078,248.2 232,227.1 232,206 c 0,-31.2 -24.20039,-45.59961 -55.90039,-45.59961 z m -5,12.59961 c 23.3,0 37.20117,12.2 37.20117,34.5 0,21.9 -15.00117,36.59961 -39.70117,36.59961 -9.4,0 -13.6,-0.29883 -20,-0.79883 v -69.70117 c 6.4,-0.6 15,-0.59961 22.5,-0.59961 z" />
</svg>
